<?xml version="1.0" encoding="utf-8"?>
<!-- Generator: Adobe Illustrator 16.0.0, SVG Export Plug-In . SVG Version: 6.00 Build 0)  -->
<!DOCTYPE svg PUBLIC "-//W3C//DTD SVG 1.1//EN" "http://www.w3.org/Graphics/SVG/1.1/DTD/svg11.dtd">
<svg version="1.1" id="Layer_1" xmlns="http://www.w3.org/2000/svg" xmlns:xlink="http://www.w3.org/1999/xlink" x="0px" y="0px"
	 width="225px" height="225px" viewBox="0 0 225 225" enable-background="new 0 0 225 225" xml:space="preserve">
<g>
	<circle fill="#FFFFFF" cx="108.417" cy="113.75" r="100.583"/>
	<path fill="#498ECB" d="M99.944,44.801c0,1.535-1.243,2.774-2.783,2.774c-1.527,0-2.774-1.239-2.774-2.774
		c0-1.534,1.247-2.779,2.774-2.779C98.701,42.021,99.944,43.267,99.944,44.801z"/>
	<path fill="#D3ECEC" d="M99.53,34.448c0,1.534-1.243,2.775-2.775,2.775c-1.535,0-2.782-1.241-2.782-2.775
		c0-1.536,1.247-2.777,2.782-2.777C98.287,31.671,99.53,32.913,99.53,34.448z"/>
	<path fill="#D3ECEC" d="M79.082,41.993c0,1.536-1.239,2.777-2.775,2.777c-1.531,0-2.774-1.241-2.774-2.777
		c0-1.534,1.243-2.777,2.774-2.777C77.843,39.216,79.082,40.459,79.082,41.993z"/>
	<circle fill="#D3ECEC" cx="119.391" cy="34.14" r="2.777"/>
	<path fill="#D3ECEC" d="M139.33,39.712c0,1.536-1.239,2.776-2.775,2.776c-1.535,0-2.774-1.24-2.774-2.776
		c0-1.534,1.239-2.779,2.774-2.779C138.091,36.933,139.33,38.178,139.33,39.712z"/>
	<circle fill="#D3ECEC" cx="151.825" cy="49.506" r="2.777"/>
	<path fill="#498ECB" d="M129.773,48.427c0,2.405-1.941,4.354-4.351,4.354s-4.355-1.948-4.355-4.354
		c0-2.403,1.946-4.354,4.355-4.354S129.773,46.023,129.773,48.427z"/>
	<path fill="#80CED2" d="M113.876,40.299c0,2.401-1.95,4.354-4.355,4.354c-2.401,0-4.355-1.952-4.355-4.354
		c0-2.407,1.954-4.354,4.355-4.354C111.926,35.945,113.876,37.892,113.876,40.299z"/>
	<path fill="#498ECB" d="M89.117,48.845c0,2.403-1.95,4.354-4.355,4.354c-2.401,0-4.352-1.95-4.352-4.354s1.95-4.353,4.352-4.353
		C87.167,44.492,89.117,46.441,89.117,48.845z"/>
	<rect x="121.818" y="175.229" fill="#603813" width="0.703" height="21.114"/>
	<rect x="104.604" y="84.856" fill="#603813" width="0.935" height="64.958"/>
	<rect x="104.674" y="155.146" fill="#603813" width="0.796" height="41.282"/>
	<rect x="113.112" y="122.659" fill="#603813" width="0.857" height="73.749"/>
	<rect x="121.701" y="123.451" fill="#603813" width="0.946" height="49.425"/>
	<rect x="113.067" y="103.881" fill="#603813" width="0.946" height="17.641"/>
	<rect x="130.07" y="141.966" fill="#603813" width="0.837" height="54.462"/>
	<rect x="88.346" y="152.639" fill="#603813" width="0.808" height="43.704"/>
	<rect x="96.166" y="118.746" fill="#603813" width="0.857" height="77.682"/>
	<polygon fill="#603813" points="69.542,173.892 69.071,173.899 68.742,135.692 69.205,135.692 	"/>
	<polygon fill="#603813" points="58.768,155.471 58.305,155.471 57.793,97.395 58.264,97.39 	"/>
	<rect x="169.951" y="140.674" fill="#603813" width="0.463" height="22.549"/>
	<rect x="157.523" y="131.378" fill="#603813" width="0.463" height="42.521"/>
	<path fill="#246B99" d="M121.795,60.341c0,6.996-5.668,12.666-12.668,12.666c-6.996,0-12.672-5.67-12.672-12.666
		c0-7.002,5.676-12.672,12.672-12.672C116.127,47.669,121.795,53.339,121.795,60.341z"/>
	<path fill="#246B99" d="M72.158,90.483c0,6.998-5.676,12.67-12.676,12.67c-6.992,0-12.664-5.672-12.664-12.67
		c0-6.996,5.672-12.668,12.664-12.668C66.482,77.815,72.158,83.487,72.158,90.483z"/>
	<path fill="#246B99" d="M169.951,119.197c0,6.996-5.668,12.668-12.668,12.668s-12.668-5.672-12.668-12.668
		c0-7,5.668-12.672,12.668-12.672S169.951,112.197,169.951,119.197z"/>
	<path fill="#80CED2" d="M136.884,63.707c0,3.053-2.479,5.527-5.525,5.527c-3.06,0-5.533-2.475-5.533-5.527s2.474-5.529,5.533-5.529
		C134.405,58.178,136.884,60.654,136.884,63.707z"/>
	<path fill="#80CED2" d="M91.01,67.512c0,4.611-3.741,8.355-8.361,8.355c-4.611,0-8.356-3.744-8.356-8.355
		c0-4.617,3.745-8.355,8.356-8.355C87.269,59.156,91.01,62.895,91.01,67.512z"/>
	<path fill="#80CED2" d="M160.176,94.631c0,4.611-3.733,8.352-8.349,8.352s-8.357-3.74-8.357-8.352c0-4.617,3.742-8.356,8.357-8.356
		S160.176,90.014,160.176,94.631z"/>
	<path fill="#246B99" d="M145.55,80.777c0,4.615-3.741,8.353-8.357,8.353c-4.611,0-8.353-3.737-8.353-8.353s3.741-8.355,8.353-8.355
		C141.809,72.422,145.55,76.162,145.55,80.777z"/>
	<path fill="#80CED2" d="M60.783,118.304c0,4.607-3.738,8.353-8.357,8.353c-4.611,0-8.354-3.745-8.354-8.353
		c0-4.615,3.742-8.361,8.354-8.361C57.045,109.942,60.783,113.688,60.783,118.304z"/>
	<path fill="#2F5599" d="M109.419,79.245c0,2.403-1.95,4.355-4.351,4.355c-2.406,0-4.355-1.952-4.355-4.355
		c0-2.401,1.949-4.354,4.355-4.354C107.469,74.892,109.419,76.844,109.419,79.245z"/>
	<path fill="#2F5599" d="M154.261,142.039c0,2.409-1.954,4.355-4.359,4.355c-2.409,0-4.352-1.946-4.352-4.355
		c0-2.405,1.942-4.355,4.352-4.355C152.307,137.684,154.261,139.634,154.261,142.039z"/>
	<path fill="#D3ECEC" d="M174.778,136.896c0,2.405-1.95,4.354-4.359,4.354c-2.397,0-4.348-1.949-4.348-4.354
		c0-2.409,1.95-4.355,4.348-4.355C172.828,132.54,174.778,134.486,174.778,136.896z"/>
	<path fill="#D3ECEC" d="M57.135,136.311c0,2.4-1.955,4.351-4.355,4.351c-2.401,0-4.352-1.95-4.352-4.351
		c0-2.414,1.95-4.355,4.352-4.355C55.18,131.955,57.135,133.896,57.135,136.311z"/>
	<circle fill="#2F5599" cx="131.521" cy="98.851" r="2.779"/>
	<path fill="#2F5599" d="M125.841,74.228c0,1.536-1.247,2.781-2.774,2.781c-1.54,0-2.783-1.245-2.783-2.781
		c0-1.533,1.243-2.774,2.783-2.774C124.594,71.453,125.841,72.694,125.841,74.228z"/>
	<path fill="#2F5599" d="M143.689,105.457c0,1.535-1.239,2.783-2.779,2.783c-1.531,0-2.775-1.248-2.775-2.783
		c0-1.532,1.244-2.779,2.775-2.779C142.45,102.678,143.689,103.925,143.689,105.457z"/>
	<path fill="#2F5599" d="M80.621,103.925c0,1.532-1.242,2.775-2.774,2.775c-1.536,0-2.783-1.243-2.783-2.775
		c0-1.535,1.247-2.774,2.783-2.774C79.379,101.15,80.621,102.39,80.621,103.925z"/>
	<circle fill="#498ECB" cx="40.69" cy="83.556" r="2.777"/>
	<path fill="#498ECB" d="M74.08,76.133c0,1.536-1.243,2.783-2.774,2.783c-1.536,0-2.787-1.247-2.787-2.783
		c0-1.533,1.251-2.774,2.787-2.774C72.837,73.358,74.08,74.6,74.08,76.133z"/>
	<path fill="#498ECB" d="M182.416,103.153c0,1.536-1.239,2.774-2.767,2.774c-1.54,0-2.783-1.238-2.783-2.774
		c0-1.532,1.243-2.779,2.783-2.779C181.177,100.374,182.416,101.621,182.416,103.153z"/>
	<path fill="#498ECB" d="M46.242,131.374c0,1.531-1.239,2.778-2.775,2.778c-1.535,0-2.775-1.247-2.775-2.778
		c0-1.532,1.24-2.775,2.775-2.775C45.003,128.599,46.242,129.842,46.242,131.374z"/>
	<path fill="#498ECB" d="M180.332,129.176c0,1.531-1.239,2.774-2.779,2.774c-1.531,0-2.774-1.243-2.774-2.774
		c0-1.536,1.243-2.779,2.774-2.779C179.093,126.396,180.332,127.64,180.332,129.176z"/>
	<path fill="#80CED2" d="M108.151,152.639c0,1.531-1.243,2.775-2.778,2.775c-1.528,0-2.775-1.244-2.775-2.775
		c0-1.536,1.247-2.775,2.775-2.775C106.908,149.863,108.151,151.103,108.151,152.639z"/>
	<path fill="#80CED2" d="M157.035,77.998c0,1.531-1.242,2.779-2.778,2.779c-1.528,0-2.775-1.248-2.775-2.779
		c0-1.536,1.247-2.777,2.775-2.777C155.793,75.221,157.035,76.462,157.035,77.998z"/>
	<circle fill="#80CED2" cx="92.329" cy="58.6" r="2.777"/>
	<path fill="#D3ECEC" d="M61.246,54.439c0,1.536-1.248,2.777-2.775,2.777c-1.535,0-2.778-1.241-2.778-2.777
		c0-1.535,1.243-2.774,2.778-2.774C59.998,51.665,61.246,52.904,61.246,54.439z"/>
	<path fill="#498ECB" d="M163.154,60.989c0,1.531-1.247,2.778-2.783,2.778c-1.531,0-2.775-1.247-2.775-2.778
		c0-1.536,1.244-2.775,2.775-2.775C161.907,58.214,163.154,59.453,163.154,60.989z"/>
	<path fill="#D3ECEC" d="M175.977,90.483c0,1.533-1.239,2.776-2.775,2.776c-1.531,0-2.774-1.243-2.774-2.776
		c0-1.532,1.243-2.777,2.774-2.777C174.737,87.706,175.977,88.951,175.977,90.483z"/>
	<path fill="#D3ECEC" d="M175.977,73.643c0,1.534-1.239,2.779-2.775,2.779c-1.531,0-2.774-1.245-2.774-2.779
		c0-1.535,1.243-2.777,2.774-2.777C174.737,70.865,175.977,72.107,175.977,73.643z"/>
	<path fill="#D3ECEC" d="M182.424,115.972c0,1.531-1.242,2.774-2.767,2.774c-1.544,0-2.787-1.243-2.787-2.774
		c0-1.536,1.243-2.779,2.787-2.779C181.182,113.192,182.424,114.436,182.424,115.972z"/>
	<path fill="#D3ECEC" d="M37.913,101.012c0,1.536-1.243,2.779-2.771,2.779c-1.536,0-2.783-1.243-2.783-2.779
		c0-1.529,1.247-2.774,2.783-2.774C36.67,98.237,37.913,99.482,37.913,101.012z"/>
	<path fill="#D3ECEC" d="M48.598,69.366c0,1.532-1.247,2.773-2.779,2.773c-1.531,0-2.778-1.241-2.778-2.773
		c0-1.539,1.247-2.782,2.778-2.782C47.351,66.584,48.598,67.827,48.598,69.366z"/>
	<path fill="#D3ECEC" d="M37.913,118.304c0,1.527-1.243,2.774-2.774,2.774c-1.532,0-2.775-1.247-2.775-2.774
		c0-1.536,1.243-2.779,2.775-2.779C36.67,115.524,37.913,116.768,37.913,118.304z"/>
	<path fill="#2F5599" d="M91.107,86.274c0,2.403-1.949,4.353-4.355,4.353c-2.408,0-4.354-1.949-4.354-4.353
		c0-2.405,1.946-4.354,4.354-4.354C89.158,81.921,91.107,83.869,91.107,86.274z"/>
	<path fill="#2F5599" d="M81.26,117.332c0,2.41-1.95,4.352-4.355,4.352s-4.355-1.941-4.355-4.352c0-2.4,1.95-4.351,4.355-4.351
		S81.26,114.932,81.26,117.332z"/>
	<path fill="#498ECB" d="M154.261,67.512c0,2.405-1.954,4.354-4.359,4.354c-2.409,0-4.352-1.948-4.352-4.354
		s1.942-4.357,4.352-4.357C152.307,63.154,154.261,65.106,154.261,67.512z"/>
	<path fill="#80CED2" d="M70.339,109.942c0,2.409-1.95,4.355-4.352,4.355c-2.409,0-4.359-1.946-4.359-4.355
		c0-2.405,1.95-4.352,4.359-4.352C68.389,105.591,70.339,107.537,70.339,109.942z"/>
	<path fill="#498ECB" d="M74.693,56.638c0,2.403-1.953,4.352-4.354,4.352c-2.409,0-4.352-1.948-4.352-4.352
		c0-2.405,1.942-4.354,4.352-4.354C72.74,52.284,74.693,54.232,74.693,56.638z"/>
	<path fill="#80CED2" d="M64.667,68.505c0,2.405-1.954,4.355-4.355,4.355c-2.409,0-4.355-1.95-4.355-4.355s1.946-4.353,4.355-4.353
		C62.713,64.152,64.667,66.1,64.667,68.505z"/>
	<circle fill="#498ECB" cx="140.91" cy="53.86" r="4.355"/>
	<path fill="#498ECB" d="M169.082,82.352c0,2.405-1.946,4.354-4.352,4.354s-4.352-1.948-4.352-4.354
		c0-2.407,1.946-4.354,4.352-4.354S169.082,79.944,169.082,82.352z"/>
	<path fill="#498ECB" d="M48.391,102.678c0,2.405-1.949,4.359-4.347,4.359c-2.405,0-4.355-1.954-4.355-4.359s1.95-4.352,4.355-4.352
		C46.441,98.326,48.391,100.272,48.391,102.678z"/>
	<path fill="#498ECB" d="M170.329,100.675c0,2.405-1.95,4.352-4.355,4.352c-2.409,0-4.359-1.946-4.359-4.352s1.95-4.355,4.359-4.355
		C168.379,96.319,170.329,98.27,170.329,100.675z"/>
	<path fill="#2F5599" d="M73.491,131.955c0,2.404-1.946,4.355-4.355,4.355c-2.405,0-4.351-1.951-4.351-4.355
		c0-2.405,1.945-4.355,4.351-4.355C71.545,127.6,73.491,129.55,73.491,131.955z"/>
	<path fill="#603813" d="M97.064,119.969h-0.939c0-14.707-10.133-26.674-22.593-26.674v-0.94
		C86.509,92.354,97.064,104.742,97.064,119.969z"/>
	<path fill="#603813" d="M89.223,152.639H88.28c0-9.994-5.68-18.124-12.677-18.124v-0.943
		C83.12,133.571,89.223,142.128,89.223,152.639z"/>
	<path fill="#603813" d="M97.064,136.896h-0.939c0-9.995-5.684-18.125-12.668-18.125v-0.938
		C90.962,117.832,97.064,126.381,97.064,136.896z"/>
	<path fill="#603813" d="M105.539,106.396h-0.935c0-9.993-5.688-18.124-12.676-18.124v-0.938
		C99.433,87.334,105.539,95.885,105.539,106.396z"/>
	<path fill="#603813" d="M114.01,103.925h-0.938c0-10.511,6.103-19.064,13.61-19.064v0.942
		C119.698,85.803,114.01,93.931,114.01,103.925z"/>
	<path fill="#603813" d="M122.647,124.053h-0.946c0-10.511,6.103-19.067,13.61-19.067v0.942
		C128.328,105.928,122.647,114.062,122.647,124.053z"/>
	<path fill="#603813" d="M130.96,142.039h-0.938c0-10.507,6.106-19.055,13.606-19.055v0.934
		C136.645,123.918,130.96,132.048,130.96,142.039z"/>
	<path fill="#603813" d="M130.96,161.931h-0.938c0-10.511,6.106-19.063,13.606-19.063v0.943
		C136.645,143.811,130.96,151.939,130.96,161.931z"/>
	<path fill="#603813" d="M114.01,120.079h-0.938c0-10.511,6.103-19.059,13.61-19.059v0.935
		C119.698,101.955,114.01,110.089,114.01,120.079z"/>
	<g>
		<path fill="#262F35" d="M66.614,32.103c-0.192,0.095-0.419,0.019-0.515-0.173l-3.037-6.121c-0.096-0.192-0.02-0.419,0.173-0.515
			l3.248-1.611c0.172-0.085,0.384-0.014,0.469,0.158c0.086,0.172,0.015,0.384-0.158,0.469l-2.903,1.441l1.21,2.438l2.226-1.104
			c0.172-0.085,0.384-0.014,0.47,0.158c0.085,0.172,0.014,0.384-0.158,0.469l-2.226,1.104l1.234,2.489l3.016-1.496
			c0.172-0.085,0.384-0.014,0.469,0.158c0.085,0.172,0.014,0.384-0.158,0.469L66.614,32.103z"/>
		<path fill="#262F35" d="M74.086,25.201l-0.76,3.686c-0.02,0.105-0.114,0.203-0.23,0.249c-0.199,0.079-0.419-0.017-0.498-0.217
			c-0.028-0.074-0.032-0.145-0.021-0.21l0.857-3.992l-3.15-2.208c-0.048-0.03-0.103-0.105-0.127-0.169
			c-0.079-0.2,0.017-0.419,0.217-0.498c0.147-0.058,0.271-0.021,0.386,0.055l2.814,2.001l0.697-3.382
			c0.032-0.134,0.098-0.245,0.245-0.303c0.199-0.079,0.419,0.017,0.498,0.217c0.024,0.063,0.036,0.155,0.021,0.21l-0.802,3.763
			l3.347,2.337c0.053,0.04,0.099,0.095,0.127,0.168c0.079,0.2-0.017,0.419-0.217,0.498c-0.115,0.045-0.252,0.039-0.337-0.025
			L74.086,25.201z"/>
		<path fill="#262F35" d="M79.293,22.663c-0.742-2.571,0.182-4.177,2.286-4.784c1.031-0.297,2.06-0.112,2.773,0.446
			c0.076,0.06,0.119,0.13,0.142,0.206c0.056,0.195-0.052,0.391-0.247,0.447c-0.098,0.028-0.205,0.023-0.323-0.06
			c-0.516-0.403-1.337-0.602-2.15-0.367c-1.671,0.481-2.335,1.766-1.722,3.892c0.65,2.257,1.855,2.849,3.526,2.368
			c0.716-0.207,1.384-0.705,1.632-1.434c0.044-0.13,0.154-0.197,0.241-0.222c0.195-0.056,0.391,0.052,0.447,0.247
			c0.024,0.087,0.019,0.147-0.006,0.225c-0.277,0.832-1.122,1.569-2.12,1.857C81.668,26.09,80.063,25.331,79.293,22.663z"/>
		<path fill="#262F35" d="M90.028,23.774c-0.211,0.04-0.409-0.096-0.449-0.307l-1.265-6.721c-0.04-0.211,0.096-0.409,0.307-0.449
			l3.565-0.671c0.189-0.036,0.374,0.091,0.409,0.279c0.036,0.189-0.09,0.374-0.279,0.409l-3.188,0.6l0.503,2.677l2.444-0.46
			c0.188-0.036,0.374,0.091,0.409,0.28c0.035,0.188-0.091,0.374-0.279,0.409l-2.444,0.46l0.515,2.733l3.311-0.623
			c0.188-0.036,0.373,0.091,0.409,0.28c0.035,0.188-0.091,0.374-0.28,0.409L90.028,23.774z"/>
		<path fill="#262F35" d="M101.26,21.432c0.202-0.021,0.376,0.121,0.396,0.323c0.021,0.202-0.121,0.376-0.323,0.396l-3.464,0.353
			c-0.214,0.021-0.399-0.13-0.422-0.344l-0.701-6.894c-0.021-0.213,0.13-0.399,0.344-0.421c0.214-0.022,0.399,0.129,0.421,0.343
			l0.667,6.556L101.26,21.432z"/>
		<path fill="#262F35" d="M108.884,21.132c0.203-0.004,0.365,0.151,0.369,0.354s-0.15,0.365-0.354,0.369l-3.478,0.071
			c-0.215,0.004-0.388-0.162-0.392-0.376l-0.141-6.921c-0.004-0.215,0.162-0.388,0.377-0.392c0.214-0.004,0.387,0.162,0.392,0.376
			l0.133,6.583L108.884,21.132z"/>
		<path fill="#262F35" d="M112.986,21.962c-0.214-0.013-0.372-0.193-0.358-0.408l0.434-6.822c0.014-0.214,0.193-0.373,0.408-0.359
			l3.619,0.23c0.191,0.012,0.34,0.18,0.327,0.372c-0.012,0.192-0.18,0.34-0.371,0.328l-3.236-0.206l-0.173,2.718l2.48,0.158
			c0.191,0.012,0.34,0.18,0.327,0.372c-0.012,0.192-0.18,0.34-0.372,0.328l-2.48-0.158l-0.177,2.774l3.36,0.213
			c0.192,0.012,0.34,0.18,0.328,0.372c-0.013,0.191-0.181,0.339-0.372,0.327L112.986,21.962z"/>
		<path fill="#262F35" d="M126.88,16.192l-1.091,6.938c-0.033,0.212-0.228,0.353-0.439,0.319c-0.134-0.021-0.226-0.093-0.287-0.205
			l-2.995-6.541l-0.898,5.711c-0.031,0.201-0.225,0.342-0.426,0.31s-0.342-0.225-0.311-0.426l1.094-6.949
			c0.031-0.201,0.226-0.342,0.426-0.31c0.134,0.021,0.233,0.117,0.276,0.203l3.016,6.555l0.9-5.722
			c0.031-0.201,0.225-0.342,0.426-0.311C126.771,15.797,126.913,15.991,126.88,16.192z"/>
		<path fill="#262F35" d="M130.018,20.425c0.68-2.589,2.296-3.497,4.416-2.94c1.038,0.272,1.827,0.958,2.154,1.803
			c0.034,0.091,0.036,0.173,0.016,0.25c-0.052,0.196-0.244,0.309-0.441,0.258c-0.098-0.026-0.188-0.084-0.246-0.217
			c-0.237-0.611-0.841-1.202-1.66-1.417c-1.683-0.442-2.911,0.322-3.474,2.463c-0.597,2.272,0.136,3.399,1.818,3.84
			c0.721,0.189,1.549,0.104,2.136-0.396c0.105-0.089,0.234-0.09,0.321-0.067c0.197,0.052,0.31,0.245,0.258,0.441
			c-0.022,0.087-0.059,0.136-0.12,0.19c-0.664,0.573-1.768,0.773-2.772,0.51C130.303,24.587,129.313,23.113,130.018,20.425z"/>
		<path fill="#262F35" d="M138.664,26.88c-0.201-0.074-0.302-0.291-0.229-0.493l2.354-6.416c0.073-0.201,0.291-0.302,0.492-0.228
			l3.404,1.249c0.181,0.066,0.274,0.269,0.208,0.449c-0.065,0.18-0.269,0.274-0.449,0.208l-3.043-1.117l-0.938,2.556l2.333,0.856
			c0.181,0.066,0.274,0.269,0.209,0.449c-0.066,0.18-0.27,0.274-0.45,0.208l-2.333-0.856l-0.957,2.609l3.16,1.159
			c0.181,0.066,0.274,0.27,0.208,0.45c-0.065,0.18-0.269,0.274-0.449,0.208L138.664,26.88z"/>
		<path fill="#262F35" d="M150.932,31.85c-0.093,0.181-0.326,0.265-0.517,0.167c-0.191-0.098-0.26-0.336-0.167-0.517l3.203-6.245
			c0.093-0.181,0.326-0.265,0.517-0.167c0.191,0.098,0.26,0.336,0.167,0.517L150.932,31.85z"/>
		<path fill="#262F35" d="M159.875,29.12c-1.014-0.617-1.706-0.349-2.041,0.201c-0.975,1.604,3.093,3.138,1.678,5.466
			c-0.734,1.208-1.971,1.369-3.458,0.464c-1.102-0.669-1.582-1.729-1.528-2.557c0.009-0.101,0.022-0.145,0.058-0.203
			c0.105-0.174,0.323-0.227,0.497-0.121c0.116,0.07,0.178,0.187,0.177,0.319c0.003,0.69,0.311,1.446,1.161,1.963
			c1.062,0.646,1.92,0.585,2.437-0.265c1.099-1.806-3.069-3.177-1.677-5.466c0.54-0.889,1.651-1.258,3.062-0.4
			c0.918,0.558,1.427,1.397,1.462,2.252c0.003,0.082-0.013,0.151-0.054,0.219c-0.105,0.174-0.323,0.227-0.497,0.121
			c-0.087-0.053-0.156-0.135-0.175-0.278C160.904,30.301,160.687,29.613,159.875,29.12z"/>
		<path fill="#262F35" d="M164.965,40.608c0.128-0.157,0.366-0.183,0.524-0.054c0.07,0.057,0.082,0.096,0.133,0.195
			c0.125,0.275,0.298,0.475,0.535,0.667c0.772,0.627,1.526,0.308,2.153-0.464l3.164-3.896c0.128-0.158,0.374-0.191,0.54-0.056
			c0.167,0.135,0.185,0.382,0.057,0.541l-3.164,3.896c-0.869,1.07-1.986,1.532-3.206,0.541c-0.333-0.271-0.662-0.654-0.784-0.971
			C164.863,40.86,164.873,40.722,164.965,40.608z"/>
		<path fill="#262F35" d="M172.78,42.75c1.869-1.917,3.723-1.908,5.292-0.377c1.568,1.53,1.624,3.383-0.246,5.3
			c-1.854,1.9-3.715,1.899-5.284,0.369S170.925,44.65,172.78,42.75z M173.345,43.301c-1.538,1.577-1.552,3.031-0.314,4.238
			s2.69,1.157,4.229-0.42c1.547-1.585,1.561-3.039,0.323-4.246S174.892,41.716,173.345,43.301z"/>
		<path fill="#262F35" d="M178.671,53.954l2.479-2.089l1.267-4.036c0.021-0.062,0.059-0.123,0.119-0.174
			c0.164-0.139,0.402-0.118,0.541,0.046c0.087,0.104,0.115,0.242,0.072,0.367l-1.164,3.596l3.741-0.538
			c0.13-0.021,0.262,0.03,0.349,0.134c0.139,0.164,0.118,0.402-0.046,0.541c-0.061,0.051-0.127,0.077-0.191,0.088l-4.192,0.563
			l-2.479,2.089c-0.164,0.139-0.403,0.118-0.541-0.046C178.487,54.331,178.507,54.092,178.671,53.954z"/>
		<path fill="#262F35" d="M184.458,64.373c-0.17,0.111-0.405,0.062-0.517-0.108c-0.111-0.17-0.062-0.404,0.108-0.516l8.533-5.574
			c0.171-0.111,0.405-0.062,0.517,0.108c0.111,0.17,0.062,0.404-0.108,0.516L184.458,64.373z"/>
		<path fill="#262F35" d="M190.138,71.583c-0.095-0.192-0.018-0.42,0.176-0.515l6.129-3.019c0.193-0.095,0.42-0.018,0.515,0.175
			l1.602,3.253c0.085,0.172,0.013,0.384-0.159,0.469c-0.173,0.084-0.384,0.013-0.469-0.16l-1.433-2.907l-2.441,1.202l1.098,2.229
			c0.085,0.172,0.013,0.384-0.159,0.469c-0.173,0.084-0.384,0.013-0.469-0.16l-1.098-2.229l-2.493,1.228l1.487,3.019
			c0.085,0.173,0.013,0.385-0.159,0.469c-0.173,0.085-0.384,0.014-0.469-0.159L190.138,71.583z"/>
		<path fill="#262F35" d="M196.997,79.053l-3.682-0.775c-0.105-0.02-0.202-0.115-0.248-0.23c-0.077-0.2,0.02-0.42,0.22-0.497
			c0.073-0.029,0.145-0.032,0.21-0.021l3.986,0.875l2.222-3.141c0.029-0.048,0.105-0.102,0.169-0.126
			c0.2-0.078,0.419,0.019,0.497,0.219c0.058,0.147,0.021,0.271-0.057,0.385l-2.012,2.806l3.378,0.711
			c0.134,0.033,0.244,0.1,0.302,0.247c0.077,0.199-0.02,0.419-0.219,0.496c-0.063,0.025-0.156,0.037-0.21,0.021l-3.759-0.818
			l-2.352,3.337c-0.04,0.052-0.096,0.098-0.169,0.126c-0.2,0.078-0.42-0.019-0.497-0.219c-0.045-0.115-0.037-0.252,0.026-0.337
			L196.997,79.053z"/>
		<path fill="#262F35" d="M199.523,84.267c2.574-0.734,4.179,0.194,4.779,2.302c0.294,1.032,0.106,2.062-0.455,2.773
			c-0.061,0.076-0.13,0.119-0.206,0.141c-0.195,0.056-0.391-0.053-0.446-0.248c-0.028-0.098-0.023-0.205,0.061-0.323
			c0.405-0.515,0.605-1.336,0.373-2.15c-0.477-1.673-1.76-2.341-3.889-1.733c-2.26,0.644-2.856,1.848-2.38,3.521
			c0.205,0.718,0.701,1.387,1.43,1.637c0.131,0.045,0.197,0.155,0.222,0.242c0.057,0.195-0.053,0.391-0.248,0.446
			c-0.087,0.025-0.147,0.019-0.225-0.006c-0.832-0.28-1.567-1.128-1.853-2.127C196.085,86.633,196.85,85.029,199.523,84.267z"/>
		<path fill="#262F35" d="M198.372,95.003c-0.039-0.211,0.097-0.409,0.308-0.448l6.721-1.246c0.211-0.039,0.409,0.097,0.448,0.308
			l0.661,3.566c0.035,0.188-0.092,0.373-0.28,0.408c-0.189,0.034-0.373-0.092-0.408-0.281l-0.592-3.188l-2.677,0.496l0.453,2.444
			c0.035,0.188-0.092,0.373-0.28,0.408c-0.189,0.034-0.373-0.092-0.408-0.281l-0.453-2.443l-2.733,0.507l0.614,3.31
			c0.035,0.189-0.092,0.374-0.28,0.408c-0.189,0.035-0.373-0.091-0.408-0.28L198.372,95.003z"/>
		<path fill="#262F35" d="M200.673,106.266c0.02,0.202-0.122,0.375-0.325,0.395c-0.202,0.02-0.375-0.122-0.395-0.324l-0.339-3.464
			c-0.021-0.214,0.132-0.399,0.346-0.42l6.894-0.674c0.213-0.021,0.398,0.132,0.419,0.346c0.021,0.213-0.131,0.398-0.345,0.419
			l-6.556,0.641L200.673,106.266z"/>
		<path fill="#262F35" d="M200.944,113.882c0.003,0.204-0.152,0.364-0.355,0.367c-0.203,0.004-0.364-0.151-0.367-0.355l-0.057-3.478
			c-0.003-0.215,0.163-0.387,0.378-0.39l6.922-0.112c0.215-0.004,0.387,0.163,0.39,0.377c0.004,0.215-0.163,0.387-0.377,0.391
			l-6.583,0.106L200.944,113.882z"/>
		<path fill="#262F35" d="M200.101,117.976c0.015-0.214,0.195-0.372,0.409-0.357l6.822,0.462c0.214,0.015,0.372,0.195,0.357,0.409
			l-0.245,3.62c-0.013,0.191-0.182,0.339-0.373,0.325c-0.191-0.013-0.339-0.181-0.326-0.373l0.22-3.236l-2.718-0.184l-0.168,2.48
			c-0.013,0.192-0.182,0.339-0.373,0.326c-0.192-0.013-0.339-0.182-0.326-0.373l0.168-2.48l-2.774-0.188l-0.228,3.36
			c-0.013,0.192-0.181,0.339-0.373,0.326c-0.191-0.013-0.339-0.182-0.325-0.373L200.101,117.976z"/>
		<path fill="#262F35" d="M205.82,131.929l-6.938-1.12c-0.212-0.034-0.353-0.229-0.318-0.44c0.021-0.134,0.094-0.226,0.207-0.287
			l6.557-2.971l-5.711-0.922c-0.201-0.032-0.341-0.227-0.309-0.427c0.032-0.201,0.227-0.342,0.427-0.309l6.949,1.121
			c0.201,0.032,0.342,0.227,0.309,0.428c-0.021,0.134-0.117,0.232-0.204,0.276l-6.571,2.99l5.722,0.924
			c0.201,0.032,0.341,0.227,0.309,0.428C206.215,131.821,206.021,131.961,205.82,131.929z"/>
		<path fill="#262F35" d="M201.57,135.039c2.586,0.691,3.486,2.311,2.921,4.427c-0.277,1.037-0.967,1.823-1.812,2.146
			c-0.091,0.034-0.173,0.035-0.25,0.015c-0.196-0.052-0.308-0.246-0.256-0.442c0.026-0.098,0.086-0.188,0.218-0.245
			c0.612-0.234,1.205-0.836,1.424-1.654c0.449-1.68-0.31-2.911-2.447-3.482c-2.27-0.605-3.399,0.121-3.848,1.801
			c-0.192,0.721-0.11,1.549,0.388,2.138c0.088,0.105,0.089,0.234,0.065,0.321c-0.052,0.196-0.246,0.309-0.442,0.256
			c-0.087-0.023-0.136-0.06-0.189-0.12c-0.57-0.667-0.766-1.771-0.498-2.775C197.408,135.306,198.886,134.322,201.57,135.039z"/>
		<path fill="#262F35" d="M195.087,143.654c0.075-0.201,0.292-0.301,0.493-0.227l6.407,2.372c0.201,0.075,0.301,0.293,0.227,0.494
			l-1.259,3.399c-0.066,0.18-0.27,0.272-0.45,0.206c-0.18-0.066-0.273-0.27-0.206-0.449l1.125-3.04l-2.552-0.944l-0.863,2.329
			c-0.066,0.181-0.27,0.273-0.449,0.207c-0.181-0.066-0.273-0.27-0.207-0.45l0.863-2.329l-2.605-0.965l-1.169,3.155
			c-0.066,0.181-0.27,0.273-0.449,0.207c-0.181-0.066-0.273-0.27-0.207-0.45L195.087,143.654z"/>
		<path fill="#262F35" d="M190.069,155.898c-0.18-0.094-0.263-0.327-0.164-0.518c0.1-0.19,0.338-0.258,0.519-0.164l6.226,3.231
			c0.18,0.093,0.263,0.327,0.163,0.518c-0.099,0.19-0.337,0.258-0.518,0.164L190.069,155.898z"/>
		<path fill="#262F35" d="M192.764,164.846c0.62-1.011,0.355-1.703-0.193-2.04c-1.599-0.98-3.146,3.078-5.467,1.655
			c-1.204-0.738-1.36-1.974-0.451-3.456c0.673-1.098,1.733-1.573,2.561-1.518c0.101,0.009,0.145,0.023,0.202,0.059
			c0.174,0.106,0.226,0.323,0.119,0.497c-0.07,0.115-0.188,0.177-0.319,0.175c-0.689,0.001-1.445,0.306-1.966,1.153
			c-0.649,1.059-0.592,1.916,0.256,2.436c1.8,1.104,3.186-3.055,5.467-1.655c0.886,0.543,1.251,1.654,0.389,3.061
			c-0.561,0.914-1.4,1.42-2.255,1.452c-0.082,0.003-0.151-0.014-0.219-0.055c-0.173-0.106-0.226-0.324-0.119-0.497
			c0.053-0.087,0.135-0.155,0.278-0.174C191.581,165.869,192.268,165.655,192.764,164.846z"/>
		<path fill="#262F35" d="M181.263,169.897c0.157,0.129,0.181,0.367,0.053,0.525c-0.058,0.069-0.097,0.081-0.196,0.132
			c-0.276,0.124-0.476,0.296-0.669,0.532c-0.63,0.77-0.313,1.524,0.456,2.154l3.882,3.178c0.157,0.129,0.189,0.374,0.054,0.54
			c-0.136,0.167-0.383,0.184-0.541,0.055l-3.882-3.178c-1.066-0.873-1.523-1.991-0.528-3.207c0.271-0.332,0.656-0.659,0.974-0.779
			C181.012,169.793,181.149,169.804,181.263,169.897z"/>
		<path fill="#262F35" d="M179.092,177.704c1.909,1.877,1.894,3.73,0.357,5.293c-1.536,1.563-3.39,1.611-5.299-0.266
			c-1.894-1.861-1.886-3.723-0.349-5.286C175.338,175.882,177.199,175.842,179.092,177.704z M178.539,178.267
			c-1.571-1.544-3.025-1.563-4.237-0.331s-1.167,2.687,0.404,4.23c1.579,1.553,3.033,1.572,4.244,0.339
			C180.162,181.273,180.118,179.82,178.539,178.267z"/>
		<path fill="#262F35" d="M167.877,183.542l2.08,2.487l4.032,1.281c0.062,0.022,0.123,0.06,0.174,0.12
			c0.138,0.165,0.117,0.403-0.048,0.541c-0.104,0.087-0.243,0.115-0.367,0.071l-3.593-1.178l0.524,3.744
			c0.021,0.13-0.031,0.262-0.136,0.349c-0.164,0.138-0.403,0.116-0.541-0.048c-0.051-0.061-0.076-0.128-0.087-0.192l-0.548-4.196
			l-2.08-2.487c-0.138-0.164-0.117-0.403,0.048-0.541S167.74,183.377,167.877,183.542z"/>
		<path fill="#262F35" d="M157.426,189.305c-0.11-0.171-0.061-0.405,0.109-0.516c0.171-0.111,0.405-0.062,0.516,0.109l5.547,8.547
			c0.111,0.171,0.061,0.405-0.109,0.516c-0.171,0.111-0.405,0.062-0.516-0.109L157.426,189.305z"/>
		<path fill="#262F35" d="M150.223,194.941c0.193-0.094,0.42-0.016,0.514,0.177l2.991,6.14c0.094,0.192,0.016,0.419-0.177,0.513
			l-3.258,1.587c-0.173,0.084-0.384,0.012-0.468-0.161s-0.011-0.384,0.161-0.468l2.912-1.419l-1.191-2.445l-2.232,1.088
			c-0.172,0.084-0.384,0.011-0.468-0.162c-0.084-0.172-0.011-0.384,0.162-0.468l2.231-1.087l-1.216-2.497l-3.023,1.474
			c-0.173,0.084-0.384,0.012-0.468-0.161s-0.012-0.384,0.161-0.468L150.223,194.941z"/>
		<path fill="#262F35" d="M142.695,201.791l0.787-3.68c0.02-0.105,0.115-0.202,0.231-0.247c0.2-0.077,0.42,0.021,0.496,0.221
			c0.029,0.073,0.032,0.145,0.021,0.21l-0.887,3.985l3.135,2.231c0.048,0.03,0.102,0.106,0.126,0.17
			c0.077,0.2-0.021,0.419-0.221,0.496c-0.147,0.057-0.271,0.02-0.385-0.058l-2.8-2.021l-0.723,3.377
			c-0.033,0.134-0.1,0.244-0.247,0.302c-0.2,0.076-0.419-0.021-0.496-0.221c-0.024-0.063-0.036-0.156-0.021-0.21l0.829-3.758
			l-3.33-2.362c-0.052-0.04-0.098-0.096-0.126-0.169c-0.077-0.2,0.021-0.42,0.221-0.497c0.116-0.044,0.252-0.036,0.338,0.027
			L142.695,201.791z"/>
		<path fill="#262F35" d="M137.464,204.295c0.723,2.578-0.213,4.179-2.323,4.771c-1.034,0.29-2.062,0.098-2.771-0.467
			c-0.076-0.061-0.119-0.131-0.141-0.207c-0.055-0.195,0.055-0.391,0.251-0.445c0.098-0.027,0.205-0.022,0.322,0.062
			c0.514,0.408,1.334,0.612,2.149,0.383c1.676-0.47,2.349-1.75,1.751-3.883c-0.635-2.263-1.836-2.864-3.512-2.395
			c-0.718,0.201-1.39,0.695-1.643,1.424c-0.046,0.13-0.156,0.196-0.243,0.221c-0.196,0.055-0.392-0.055-0.446-0.251
			c-0.024-0.087-0.018-0.147,0.008-0.225c0.283-0.831,1.134-1.562,2.135-1.843C135.112,200.847,136.713,201.619,137.464,204.295z"/>
		<path fill="#262F35" d="M126.763,203.098c0.211-0.038,0.408,0.099,0.446,0.31l1.219,6.721c0.038,0.211-0.099,0.407-0.31,0.446
			l-3.565,0.646c-0.188,0.034-0.373-0.094-0.407-0.282s0.094-0.373,0.282-0.407l3.188-0.578l-0.485-2.677l-2.444,0.443
			c-0.188,0.034-0.372-0.094-0.406-0.282c-0.035-0.188,0.093-0.372,0.281-0.406l2.444-0.443l-0.496-2.732l-3.31,0.6
			c-0.189,0.034-0.373-0.093-0.407-0.282c-0.034-0.188,0.093-0.372,0.282-0.406L126.763,203.098z"/>
		<path fill="#262F35" d="M115.489,205.365c-0.202,0.019-0.374-0.124-0.394-0.326s0.123-0.375,0.325-0.394l3.464-0.329
			c0.214-0.021,0.398,0.132,0.419,0.346l0.654,6.894c0.021,0.214-0.132,0.398-0.346,0.419s-0.398-0.133-0.419-0.347l-0.622-6.556
			L115.489,205.365z"/>
		<path fill="#262F35" d="M107.866,205.611c-0.204,0.003-0.364-0.152-0.367-0.355c-0.004-0.203,0.151-0.364,0.355-0.367l3.478-0.057
			c0.215-0.003,0.387,0.163,0.39,0.378l0.112,6.922c0.004,0.215-0.163,0.387-0.377,0.39c-0.215,0.004-0.387-0.163-0.391-0.377
			l-0.106-6.583L107.866,205.611z"/>
		<path fill="#262F35" d="M103.775,204.748c0.214,0.016,0.371,0.196,0.356,0.411l-0.48,6.821c-0.015,0.215-0.196,0.372-0.41,0.356
			l-3.62-0.254c-0.191-0.014-0.338-0.183-0.324-0.375c0.013-0.191,0.182-0.338,0.374-0.324l3.236,0.228l0.19-2.718l-2.48-0.175
			c-0.191-0.013-0.338-0.183-0.325-0.374c0.014-0.191,0.183-0.338,0.374-0.325l2.481,0.175l0.195-2.773l-3.36-0.236
			c-0.192-0.014-0.339-0.183-0.325-0.375c0.014-0.191,0.183-0.338,0.374-0.324L103.775,204.748z"/>
		<path fill="#262F35" d="M89.811,210.408l1.148-6.928c0.035-0.212,0.23-0.352,0.442-0.316c0.133,0.022,0.225,0.095,0.285,0.208
			l2.94,6.564l0.945-5.703c0.034-0.2,0.229-0.34,0.429-0.307c0.201,0.033,0.34,0.229,0.307,0.429l-1.15,6.939
			c-0.033,0.2-0.228,0.34-0.428,0.307c-0.134-0.022-0.232-0.119-0.275-0.206l-2.961-6.579l-0.947,5.714
			c-0.033,0.201-0.228,0.34-0.429,0.307C89.917,210.803,89.778,210.609,89.811,210.408z"/>
		<path fill="#262F35" d="M86.723,206.162c-0.698,2.586-2.321,3.482-4.438,2.911c-1.036-0.28-1.821-0.972-2.143-1.819
			c-0.034-0.091-0.035-0.174-0.015-0.25c0.053-0.196,0.247-0.308,0.443-0.255c0.099,0.026,0.188,0.086,0.245,0.219
			c0.233,0.612,0.833,1.208,1.651,1.429c1.681,0.453,2.914-0.302,3.491-2.44c0.612-2.27-0.111-3.401-1.792-3.854
			c-0.72-0.194-1.55-0.114-2.14,0.382c-0.105,0.089-0.234,0.089-0.322,0.065c-0.196-0.053-0.308-0.247-0.255-0.443
			c0.023-0.087,0.061-0.136,0.122-0.189c0.668-0.569,1.773-0.762,2.777-0.491C86.466,201.996,87.448,203.478,86.723,206.162z"/>
		<path fill="#262F35" d="M78.132,199.643c0.2,0.075,0.3,0.293,0.225,0.494l-2.4,6.397c-0.075,0.201-0.294,0.3-0.494,0.225
			l-3.395-1.273c-0.18-0.067-0.272-0.271-0.205-0.45c0.067-0.181,0.271-0.272,0.451-0.205l3.034,1.139l0.956-2.549l-2.326-0.873
			c-0.18-0.067-0.272-0.271-0.205-0.45s0.271-0.272,0.451-0.205l2.326,0.873l0.977-2.602l-3.151-1.183
			c-0.18-0.067-0.272-0.271-0.205-0.45s0.271-0.272,0.451-0.205L78.132,199.643z"/>
		<path fill="#262F35" d="M65.891,194.579c0.094-0.18,0.328-0.262,0.518-0.162c0.19,0.1,0.257,0.338,0.163,0.519l-3.251,6.216
			c-0.094,0.18-0.327,0.262-0.518,0.162s-0.257-0.338-0.163-0.518L65.891,194.579z"/>
		<path fill="#262F35" d="M56.922,197.237c1.01,0.624,1.702,0.361,2.041-0.187c0.985-1.596-3.07-3.157-1.64-5.474
			c0.742-1.202,1.979-1.354,3.459-0.44c1.096,0.677,1.568,1.738,1.51,2.565c-0.009,0.101-0.023,0.145-0.059,0.202
			c-0.107,0.174-0.325,0.225-0.498,0.118c-0.115-0.071-0.176-0.188-0.174-0.32c0.001-0.689-0.302-1.447-1.147-1.97
			c-1.058-0.653-1.915-0.598-2.437,0.248c-1.11,1.798,3.046,3.195,1.639,5.474c-0.546,0.885-1.659,1.246-3.062,0.38
			c-0.913-0.564-1.416-1.405-1.445-2.261c-0.003-0.081,0.014-0.151,0.055-0.218c0.107-0.174,0.324-0.225,0.498-0.118
			c0.086,0.054,0.155,0.136,0.173,0.279C55.903,196.05,56.115,196.739,56.922,197.237z"/>
		<path fill="#262F35" d="M51.915,185.71c-0.13,0.157-0.368,0.18-0.524,0.051c-0.07-0.058-0.082-0.097-0.132-0.196
			c-0.122-0.277-0.294-0.478-0.529-0.671c-0.767-0.633-1.523-0.319-2.155,0.447l-3.191,3.868c-0.129,0.157-0.375,0.188-0.54,0.052
			c-0.166-0.136-0.182-0.384-0.052-0.54l3.19-3.869c0.877-1.062,1.997-1.515,3.208-0.516c0.331,0.272,0.657,0.658,0.775,0.977
			C52.019,185.459,52.008,185.597,51.915,185.71z"/>
		<path fill="#262F35" d="M44.117,183.511c-1.884,1.902-3.737,1.88-5.294,0.337c-1.558-1.542-1.599-3.396,0.286-5.297
			c1.868-1.887,3.729-1.871,5.286-0.329C45.953,179.764,45.985,181.625,44.117,183.511z M43.555,182.955
			c1.55-1.564,1.575-3.019,0.347-4.235c-1.228-1.216-2.682-1.177-4.231,0.388c-1.559,1.573-1.583,3.027-0.355,4.244
			C40.543,184.567,41.997,184.528,43.555,182.955z"/>
		<path fill="#262F35" d="M38.331,172.291l-2.492,2.071l-1.293,4.025c-0.021,0.062-0.059,0.123-0.12,0.174
			c-0.165,0.137-0.403,0.115-0.54-0.05c-0.087-0.104-0.114-0.243-0.07-0.367l1.188-3.587l-3.744,0.513
			c-0.13,0.021-0.261-0.031-0.348-0.136c-0.138-0.165-0.115-0.403,0.05-0.541c0.061-0.05,0.127-0.076,0.192-0.086l4.194-0.536
			l2.491-2.071c0.165-0.137,0.404-0.115,0.541,0.05S38.496,172.153,38.331,172.291z"/>
		<path fill="#262F35" d="M32.615,161.826c0.171-0.11,0.405-0.06,0.516,0.112c0.11,0.171,0.06,0.405-0.111,0.516l-8.575,5.519
			c-0.171,0.11-0.405,0.06-0.516-0.111c-0.109-0.171-0.059-0.405,0.112-0.516L32.615,161.826z"/>
		<path fill="#262F35" d="M26.985,154.574c0.094,0.193,0.015,0.42-0.179,0.513l-6.157,2.973c-0.193,0.094-0.42,0.015-0.513-0.179
			l-1.578-3.267c-0.083-0.174-0.01-0.385,0.164-0.469c0.173-0.083,0.384-0.01,0.468,0.164l1.41,2.921l2.452-1.185l-1.081-2.239
			c-0.083-0.173-0.01-0.384,0.164-0.468c0.173-0.083,0.384-0.01,0.468,0.163l1.08,2.239l2.504-1.209l-1.464-3.032
			c-0.084-0.173-0.01-0.385,0.163-0.468c0.173-0.084,0.385-0.01,0.468,0.163L26.985,154.574z"/>
		<path fill="#262F35" d="M20.165,147.017l3.677,0.802c0.104,0.021,0.201,0.117,0.245,0.233c0.076,0.2-0.021,0.419-0.223,0.495
			c-0.074,0.028-0.146,0.031-0.21,0.02l-3.98-0.904l-2.245,3.125c-0.03,0.048-0.106,0.102-0.17,0.125
			c-0.2,0.076-0.419-0.021-0.495-0.223c-0.057-0.147-0.019-0.271,0.059-0.385l2.033-2.791l-3.373-0.735
			c-0.134-0.034-0.244-0.101-0.3-0.249c-0.076-0.2,0.021-0.419,0.223-0.495c0.063-0.024,0.155-0.035,0.21-0.02l3.753,0.846
			l2.376-3.32c0.041-0.052,0.096-0.097,0.17-0.125c0.2-0.076,0.419,0.022,0.495,0.223c0.044,0.116,0.036,0.253-0.028,0.338
			L20.165,147.017z"/>
		<path fill="#262F35" d="M17.686,141.812c-2.582,0.716-4.181-0.226-4.767-2.339c-0.287-1.035-0.091-2.063,0.476-2.771
			c0.061-0.076,0.131-0.119,0.207-0.14c0.196-0.055,0.392,0.056,0.445,0.252c0.027,0.098,0.022,0.205-0.062,0.322
			c-0.409,0.513-0.616,1.332-0.39,2.149c0.465,1.678,1.744,2.355,3.88,1.764c2.266-0.629,2.872-1.829,2.406-3.507
			c-0.199-0.719-0.691-1.393-1.419-1.648c-0.13-0.046-0.196-0.156-0.22-0.243c-0.055-0.196,0.056-0.392,0.252-0.445
			c0.087-0.024,0.147-0.018,0.225,0.008c0.83,0.286,1.56,1.14,1.838,2.142C21.143,139.468,20.367,141.069,17.686,141.812z"/>
		<path fill="#262F35" d="M18.917,131.074c0.038,0.212-0.1,0.408-0.312,0.445l-6.729,1.191c-0.211,0.037-0.407-0.101-0.445-0.312
			l-0.632-3.57c-0.033-0.189,0.095-0.373,0.284-0.406s0.372,0.095,0.406,0.284l0.564,3.192l2.681-0.475l-0.433-2.447
			c-0.034-0.189,0.095-0.372,0.283-0.406c0.189-0.033,0.373,0.095,0.406,0.284l0.433,2.447l2.736-0.484l-0.586-3.314
			c-0.033-0.189,0.095-0.373,0.283-0.406c0.189-0.033,0.373,0.095,0.406,0.284L18.917,131.074z"/>
		<path fill="#262F35" d="M16.698,119.823c-0.019-0.202,0.125-0.374,0.327-0.393c0.203-0.018,0.374,0.125,0.393,0.327l0.315,3.464
			c0.02,0.214-0.134,0.397-0.348,0.417l-6.894,0.627c-0.214,0.02-0.398-0.134-0.417-0.348c-0.02-0.214,0.134-0.397,0.347-0.417
			l6.557-0.596L16.698,119.823z"/>
		<path fill="#262F35" d="M16.469,112.197c-0.003-0.204,0.152-0.364,0.355-0.367c0.203-0.004,0.364,0.151,0.367,0.355l0.057,3.478
			c0.003,0.215-0.163,0.387-0.378,0.39l-6.922,0.112c-0.215,0.004-0.387-0.163-0.39-0.377c-0.004-0.215,0.163-0.387,0.377-0.391
			l6.583-0.106L16.469,112.197z"/>
		<path fill="#262F35" d="M17.354,108.112c-0.016,0.215-0.197,0.371-0.411,0.354l-6.813-0.508c-0.214-0.016-0.37-0.197-0.354-0.411
			l0.27-3.614c0.015-0.191,0.184-0.338,0.375-0.323c0.191,0.014,0.338,0.184,0.323,0.375l-0.24,3.231l2.714,0.202l0.185-2.477
			c0.014-0.191,0.184-0.338,0.375-0.323c0.191,0.014,0.337,0.184,0.323,0.375l-0.185,2.478l2.77,0.206l0.25-3.355
			c0.015-0.191,0.184-0.338,0.375-0.323s0.338,0.184,0.323,0.375L17.354,108.112z"/>
		<path fill="#262F35" d="M11.733,94.133l6.928,1.168c0.212,0.035,0.351,0.23,0.315,0.442c-0.022,0.134-0.095,0.225-0.209,0.285
			l-6.575,2.925l5.703,0.961c0.201,0.033,0.34,0.229,0.306,0.43c-0.033,0.2-0.229,0.339-0.43,0.306l-6.939-1.17
			c-0.2-0.033-0.339-0.229-0.306-0.43c0.022-0.134,0.119-0.231,0.207-0.274l6.59-2.944l-5.714-0.963
			c-0.2-0.034-0.34-0.229-0.306-0.43S11.532,94.1,11.733,94.133z"/>
		<path fill="#262F35" d="M16.009,91.025c-2.582-0.709-3.471-2.335-2.891-4.449c0.284-1.034,0.979-1.816,1.828-2.134
			c0.091-0.033,0.173-0.034,0.249-0.014c0.196,0.054,0.307,0.248,0.253,0.444c-0.026,0.099-0.086,0.188-0.219,0.244
			c-0.614,0.23-1.212,0.828-1.436,1.645c-0.461,1.678,0.289,2.915,2.425,3.501c2.266,0.622,3.4-0.098,3.861-1.775
			c0.197-0.719,0.12-1.548-0.373-2.141c-0.088-0.106-0.088-0.235-0.064-0.322c0.055-0.196,0.249-0.307,0.444-0.253
			c0.088,0.024,0.136,0.061,0.189,0.122c0.565,0.671,0.754,1.777,0.479,2.779C20.175,90.787,18.69,91.76,16.009,91.025z"/>
		<path fill="#262F35" d="M22.557,82.464c-0.076,0.201-0.294,0.299-0.495,0.223l-6.388-2.428c-0.201-0.076-0.299-0.295-0.223-0.495
			l1.288-3.39c0.068-0.18,0.272-0.271,0.451-0.203c0.18,0.068,0.271,0.272,0.203,0.452l-1.151,3.03l2.545,0.967l0.883-2.322
			c0.067-0.18,0.271-0.271,0.451-0.203s0.271,0.272,0.203,0.451l-0.883,2.323l2.598,0.987l1.195-3.146
			c0.068-0.18,0.272-0.271,0.452-0.203s0.271,0.272,0.203,0.452L22.557,82.464z"/>
		<path fill="#262F35" d="M27.661,70.26c0.18,0.095,0.261,0.329,0.16,0.52c-0.101,0.189-0.339,0.255-0.52,0.16l-6.206-3.279
			c-0.18-0.095-0.261-0.329-0.16-0.519c0.1-0.19,0.339-0.256,0.519-0.161L27.661,70.26z"/>
		<path fill="#262F35" d="M25.041,61.279c-0.628,1.006-0.369,1.7,0.178,2.041c1.591,0.993,3.171-3.054,5.48-1.612
			c1.198,0.748,1.345,1.984,0.424,3.46c-0.683,1.093-1.746,1.561-2.572,1.497c-0.101-0.01-0.146-0.023-0.203-0.06
			c-0.172-0.107-0.223-0.325-0.115-0.498c0.072-0.115,0.189-0.175,0.321-0.173c0.689,0.005,1.448-0.294,1.975-1.138
			c0.658-1.054,0.607-1.911-0.235-2.438c-1.792-1.118-3.21,3.03-5.481,1.612c-0.882-0.55-1.237-1.665-0.364-3.063
			c0.568-0.91,1.412-1.409,2.267-1.435c0.082-0.003,0.151,0.014,0.219,0.056c0.172,0.108,0.223,0.326,0.115,0.498
			c-0.055,0.087-0.137,0.155-0.28,0.172C26.233,60.265,25.543,60.473,25.041,61.279z"/>
		<path fill="#262F35" d="M36.576,56.317c-0.156-0.13-0.179-0.369-0.049-0.525c0.058-0.069,0.097-0.081,0.196-0.131
			c0.277-0.122,0.479-0.293,0.674-0.528c0.635-0.765,0.323-1.522-0.441-2.157l-3.862-3.205c-0.156-0.13-0.188-0.376-0.05-0.541
			c0.137-0.165,0.384-0.181,0.541-0.051l3.861,3.205c1.062,0.881,1.511,2.003,0.508,3.211c-0.274,0.331-0.662,0.656-0.979,0.773
			C36.827,56.422,36.689,56.411,36.576,56.317z"/>
		<path fill="#262F35" d="M38.816,48.513c-1.896-1.892-1.865-3.744-0.317-5.296c1.549-1.551,3.401-1.585,5.297,0.307
			c1.879,1.875,1.856,3.736,0.309,5.288C42.555,50.363,40.695,50.388,38.816,48.513z M39.375,47.954
			c1.559,1.556,3.013,1.587,4.233,0.363s1.188-2.677-0.371-4.233c-1.567-1.564-3.021-1.595-4.242-0.371S37.807,46.389,39.375,47.954
			z"/>
		<path fill="#262F35" d="M50.057,42.768l-2.062-2.5l-4.022-1.309c-0.062-0.022-0.122-0.06-0.173-0.121
			c-0.137-0.166-0.113-0.404,0.052-0.541c0.104-0.086,0.243-0.113,0.368-0.069l3.583,1.202l-0.499-3.746
			c-0.02-0.13,0.033-0.262,0.138-0.348c0.165-0.136,0.404-0.114,0.541,0.052c0.05,0.061,0.075,0.128,0.085,0.193l0.521,4.198
			l2.062,2.501c0.137,0.165,0.113,0.403-0.052,0.54C50.432,42.957,50.194,42.934,50.057,42.768z"/>
		<path fill="#262F35" d="M60.542,37.093c0.109,0.171,0.058,0.405-0.114,0.515c-0.171,0.109-0.405,0.058-0.515-0.114l-5.478-8.588
			c-0.109-0.171-0.058-0.405,0.113-0.515c0.172-0.109,0.405-0.058,0.515,0.114L60.542,37.093z"/>
	</g>
	<path fill="#498ECB" d="M117.891,123.451c0,2.409-1.942,4.352-4.348,4.352c-2.409,0-4.359-1.942-4.359-4.352
		c0-2.401,1.95-4.352,4.359-4.352C115.948,119.1,117.891,121.05,117.891,123.451z"/>
	<circle fill="#D3ECEC" cx="96.457" cy="119.303" r="2.777"/>
	<circle fill="#80CED2" cx="88.75" cy="193.563" r="2.781"/>
	<circle fill="#D3ECEC" cx="113.625" cy="193.815" r="2.779"/>
	<path fill="#D3ECEC" d="M124.947,175.229c0,1.535-1.243,2.778-2.779,2.778c-1.531,0-2.774-1.243-2.774-2.778
		c0-1.536,1.243-2.775,2.774-2.775C123.704,172.453,124.947,173.692,124.947,175.229z"/>
</g>
</svg>
